<svg xmlns="http://www.w3.org/2000/svg">
<symbol id="plus" viewBox="0 0 14 14"><path d="M8 6V0H6v6H0v2h6v6h2V8h6V6z" fill="#f47821"/></symbol>
<symbol id="purse" viewBox="0 0 56 56"><path d="M7 14a1 1 0 0 0 0 2zm16-4v1zm13-8zm7 8h-1zm-4-7h1zm15 24h1v-1h-1zm0 12v1h1v-1zm-9 14H8v2h37zM3 49V15H1v34zm10-35H7v2h6zm38 0h-5v2h5zm-5 0H13v2h33zm-32 2l9-5-1-2-9 5zm9-5l13-8-1-1-13 7zM8 11h15V9H8zm35 0h2V9h-2zm-5-7l4 6 2-1-4-6zm4 6l3 6 2-1-3-6zM8 53a4 4 0 0 1-5-4H1a6 6 0 0 0 7 6zM36 3a1 1 0 0 1 2 1l2-1a3 3 0 0 0-4-1zm9 52a6 6 0 0 0 7-6h-2a4 4 0 0 1-5 4zm7-40a6 6 0 0 0-7-6v2a4 4 0 0 1 5 4zM3 15a4 4 0 0 1 5-4V9a6 6 0 0 0-7 6zm50 12v12h2V27zM43 38a5 5 0 0 1-5-5h-2a7 7 0 0 0 7 7zm0-12a7 7 0 0 0-7 7h2a5 5 0 0 1 5-5zm0 2h8v-2h-8zm8 0h3v-2h-3zm-1-13v12h2V15zm0 24v10h2V39zm4-1h-3v2h3zm-3 0h-8v2h8zm-8-5h-2a2 2 0 0 0 2 2zm0 0v2a2 2 0 0 0 2-2zm0 0h2a2 2 0 0 0-2-2zm0-2a2 2 0 0 0-2 2h2z" fill="#f47821"/></symbol>
</svg>